<?xml version="1.0" encoding="UTF-8"?>
<svg id="Layer_2" data-name="Layer 2" xmlns="http://www.w3.org/2000/svg" viewBox="0 0 2625 1545">
  <defs>
    <style>
      .cls-1 {
        fill: #262c64;
      }

      .cls-2 {
        stroke: #89414e;
        stroke-miterlimit: 10;
      }

      .cls-2, .cls-3 {
        fill: #89414e;
      }

      .cls-4 {
        fill: #8687aa;
      }

      .cls-5 {
        fill: #414e89;
      }

      .cls-6 {
        fill: #252d64;
      }

      .cls-7 {
        fill: none;
      }
    </style>
  </defs>
  <g id="Layer_1-2" data-name="Layer 1">
    <path class="cls-1" d="M1620,402.88c0-6.68,3.27-12.94,8.76-16.75l157.42-109.38h0c9-6.25,21.32.19,21.32,11.15v411.28c0,6.89-3.41,13.32-9.11,17.19l-153.87,104.42c-10.43,7.07-24.52-.39-24.52-12.99v-404.9Z"/>
    <path class="cls-5" d="M1365,402.88c0-6.68,3.27-12.94,8.76-16.75l157.42-109.38h0c9-6.25,21.32.19,21.32,11.15v411.28c0,6.89-3.41,13.32-9.11,17.19l-153.76,104.34c-10.48,7.11-24.63-.4-24.63-13.05v-404.76Z"/>
    <path class="cls-4" d="M1110,402.88c0-6.68,3.27-12.94,8.76-16.75l157.42-109.38h0c9-6.25,21.32.19,21.32,11.15v411.28c0,6.89-3.41,13.32-9.11,17.19l-153.76,104.34c-10.48,7.11-24.63-.4-24.63-13.05v-404.76Z"/>
    <g>
      <path class="cls-6" d="M521.22,477.48c39.58,0,69.64,7.01,90.19,20.54,25.05,16.53,39.08,40.58,39.08,75.15,0,72.65-61.63,103.21-115.24,103.71-5.01,0-11.52-.5-15.03-1l-29.06-7.52v68.14c0,42.08,3.51,44.09,47.1,48.1v18.54h-159.33v-18.54c37.58-4.51,42.59-6.01,42.59-48.1v-191.39c0-42.09-5.01-46.6-42.59-49.1v-18.54h142.29ZM491.15,647.33c6.01,3.01,16.03,5.01,26.56,5.01,23.05,0,60.62-13.52,60.62-79.66,0-56.11-30.56-74.65-63.13-74.65-10.52,0-16.53,2.5-19.54,5.01-3.51,3.01-4.51,8.02-4.51,15.53v128.76Z"/>
      <path class="cls-6" d="M922.5,560.65c-5.51-19.04-13.53-37.58-22.05-47.1-10.52-11.02-17.04-13.03-41.09-13.03h-37.58c-17.03,0-19.04,1-19.04,18.04v109.23h53.61c29.56,0,33.57-7.52,41.09-42.59h18.54v111.23h-19.04c-5.51-34.07-13.03-42.59-40.58-42.59h-53.61v78.16c0,46.09,3,49.6,48.1,52.61v18.54h-160.33v-18.54c38.07-3.51,42.59-6.51,42.59-52.61v-184.38c0-44.59-4.51-48.6-42.59-51.61v-18.54h169.84c43.09,0,68.14-.5,76.15-1,.5,8.52,3.01,51.61,5.51,81.17l-19.54,3.01Z"/>
    </g>
    <g>
      <path class="cls-1" d="M472.84,911.65c-8.91,1.25-10.24,2.42-13.68,12.8-4.02,12.13-14.03,43.89-21.17,67.12h-4.8c-6.56-19.47-14.81-42.88-21.51-61.65-7.2,21.29-14.47,42.37-20.94,61.65h-4.75c-6.1-21.06-13.47-45.19-20.35-67.38-3.27-10.14-4.75-11.67-12.89-12.53v-3.75h32.52v3.75c-9.39.99-9.64,2.47-7.87,8.85,4.8,16.63,9.75,33.1,14.75,50.22,6.87-19.71,14.19-41.21,20.53-61.77h4.53c7.07,21.13,14.18,40.92,21.45,61.89,5.2-16.27,12.21-38.54,14.81-48.87,1.88-7.36.82-9.12-9.96-10.32v-3.75h29.33v3.75Z"/>
      <path class="cls-1" d="M544.51,969.8c-.74,3.31-4.18,16.63-5.42,20.38h-62.27v-3.73c11.73-.93,12.59-1.98,12.59-12.4v-49.7c0-11.17-1.42-11.83-10.75-12.69v-3.75h39.16c12.15,0,16.99-.12,18.56-.25.12,3.01.66,12.66,1.16,19.57l-4,.63c-1.14-4.3-2.56-7.42-4.09-10-2.07-3.88-4.75-4.75-12.14-4.75h-11.34c-4.08,0-4.38.36-4.38,4.14v27.7h13.75c9.06,0,9.8-1.9,11.39-10.58h4.11v26.46h-4.11c-1.71-9.16-2.73-10.47-11.52-10.47h-13.63v24.57c0,8.84,2.33,9.94,8.93,10.06h11.27c7.61,0,8.99-1.09,11.77-4.41,2.54-2.84,5.18-7.94,6.99-11.83l3.96,1.04Z"/>
      <path class="cls-1" d="M596.65,990.18v-3.75c8.18-1.03,9.01-2.32,7.24-7.25-1.57-4.73-4.02-10.95-6.54-18.39h-26.86c-1.91,5.38-3.79,10.29-5.47,15.25-2.76,8.18-.76,9.19,9.55,10.39v3.75h-29.6v-3.75c7.97-1.01,10-1.94,14.41-13.2l26.22-66.27,4.42-.83c8,21.71,16.71,45.38,24.73,67.14,4.16,11.15,5.3,12.14,14.15,13.15v3.75h-32.24ZM584.26,923.96c-3.98,10.57-8.15,21.54-11.83,31.4h23.03l-11.2-31.4Z"/>
      <path class="cls-1" d="M698.1,968.94c-.81,4.2-4.56,17.41-5.8,21.24h-59.56v-3.75c11.45-1.07,12.46-1.75,12.46-12.48v-49.89c0-10.73-1.27-11.44-11.28-12.4v-3.75h34.93v3.75c-10.08.99-11.45,1.56-11.45,12.4v51.08c0,7.58.88,9.61,8.05,9.73.15.02,8.67.12,9.38.12,6.59,0,8.49-.89,11.43-4.11,3.03-3.15,5.8-8.28,7.77-13.06l4.08,1.1Z"/>
      <path class="cls-1" d="M761.86,928.14c-1.18-4.37-2.93-8.66-4.3-10.85-2.07-3.28-3.29-4.19-10.35-4.19h-11.84v61.25c0,10.01,1.06,11.29,12.95,12.07v3.75h-37.77v-3.75c11.59-.78,12.63-1.96,12.63-12.07v-61.25h-10.84c-6.98,0-9.01.83-11.21,4.49-1.56,2.51-2.71,5.82-4.36,10.57h-3.98c.78-7.99,1.56-16.31,1.92-23.21h3.07c1.9,3.01,3.31,2.96,6.9,2.96h50.21c3.52,0,4.67-.55,6.61-2.96h3.15c.02,5.83.53,15.31,1.16,22.81l-3.98.38Z"/>
      <path class="cls-1" d="M864.53,911.65c-10.39,1.01-11.38,1.67-11.38,12.28v50.34c0,10.61,1.12,11.06,11.38,12.15v3.75h-34.86v-3.75c10.42-1.26,11.38-1.54,11.38-12.15v-25.04h-41.65v25.04c0,10.51,1.04,10.93,11.25,12.15v3.75h-34.73v-3.75c10.09-1.12,11.28-1.54,11.28-12.15v-50.34c0-10.61-1.14-11.31-11.28-12.28v-3.75h34.73v3.75c-10.03.89-11.25,1.77-11.25,12.28v19.76h41.65v-19.76c0-10.51-1.37-11.37-11.38-12.28v-3.75h34.86v3.75Z"/>
      <path class="cls-1" d="M974.51,990.18v-3.75c10.24-1.01,10.67-1.79,10.57-14.95l.08-51.23c-10.15,22.91-25.65,56.92-30.92,69.93h-3.45c-5.01-13.16-18.35-45.94-27.88-68.71-2.06,43.48-2.16,53.09-2.16,55.88.13,7.04,3.18,8.19,11.95,9.08v3.75h-30.25v-3.75c7.32-.74,10.4-2.23,11.41-9.2.71-5.25.91-10.29,4.13-55.69.48-6.49-.71-8.87-11.81-9.88v-3.75h22.98l27.33,62.67,29.02-62.67h22.97v3.75c-10.75,1.22-12.09,2.34-11.84,11.43l.6,48.4c.44,13.15.84,13.77,11.82,14.95v3.75h-34.53Z"/>
      <path class="cls-1" d="M1065.17,990.18v-3.75c8.18-1.03,9.01-2.32,7.24-7.25-1.57-4.73-4.02-10.95-6.54-18.39h-26.86c-1.91,5.38-3.79,10.29-5.47,15.25-2.76,8.18-.76,9.19,9.55,10.39v3.75h-29.6v-3.75c7.97-1.01,10-1.94,14.41-13.2l26.22-66.27,4.42-.83c8,21.71,16.71,45.38,24.73,67.14,4.16,11.15,5.3,12.14,14.15,13.15v3.75h-32.24ZM1052.79,923.96c-3.98,10.57-8.15,21.54-11.83,31.4h23.03l-11.2-31.4Z"/>
      <path class="cls-1" d="M1190.05,911.65c-8.03.91-10.64,2.24-11.02,8.04-.17,4.21-.45,9.35-.45,20.98v50.69h-5.22l-53.92-65.68v31.1c0,11.32.36,16.88.63,20.55.3,6.3,3.37,8.38,12.53,9.09v3.75h-30.87v-3.75c7.73-.63,10.79-2.53,11.35-8.69.4-4.14.66-9.63.66-21.06v-31.86c0-3.66-.25-5.82-2.56-8.7-2.38-3.16-5.11-3.85-11.15-4.46v-3.75h20.01l52.69,62.3v-29.53c0-11.63-.23-16.85-.61-20.81-.38-5.65-3.13-7.58-13.33-8.21v-3.75h31.26v3.75Z"/>
      <path class="cls-1" d="M1242.74,990.18v-3.75c8.18-1.03,9.01-2.32,7.24-7.25-1.57-4.73-4.02-10.95-6.54-18.39h-26.86c-1.91,5.38-3.79,10.29-5.47,15.25-2.76,8.18-.76,9.19,9.55,10.39v3.75h-29.6v-3.75c7.97-1.01,10-1.94,14.41-13.2l26.22-66.27,4.42-.83c8,21.71,16.71,45.38,24.73,67.14,4.16,11.15,5.3,12.14,14.15,13.15v3.75h-32.24ZM1230.36,923.96c-3.98,10.57-8.15,21.54-11.83,31.4h23.03l-11.2-31.4Z"/>
      <path class="cls-1" d="M1362.22,955.6c-7.73,1.06-8.31,1.77-8.31,9.44v10.47c0,4.45.12,8.65.75,12.07-7.6,1.66-18.51,4.49-29.07,4.49-28.92,0-46.31-17.89-46.31-43.26,0-27.03,22.02-42.68,47.63-42.68,12.43,0,22.22,2.53,26.19,3.12.25,4.84.95,12.91,1.94,20.7l-4.01.78c-3.03-10.76-6.88-15.47-14.84-18.13-2.91-1.01-8.01-1.62-11.59-1.62-18.64,0-30.99,13.29-30.99,36.2,0,20.52,9.92,40.08,33.8,40.08,3.98,0,7.79-.79,10.28-2.08,2.53-1.45,4.05-2.98,4.05-7.94v-10.51c0-9.17-1.14-10.16-13.02-11.12v-3.85h33.49v3.85Z"/>
      <path class="cls-1" d="M1438.28,969.8c-.74,3.31-4.18,16.63-5.42,20.38h-62.26v-3.73c11.72-.93,12.58-1.98,12.58-12.4v-49.7c0-11.17-1.41-11.83-10.74-12.69v-3.75h39.16c12.14,0,16.99-.12,18.56-.25.12,3.01.66,12.66,1.16,19.57l-4,.63c-1.14-4.3-2.56-7.42-4.09-10-2.07-3.88-4.75-4.75-12.14-4.75h-11.34c-4.08,0-4.39.36-4.39,4.14v27.7h13.75c9.06,0,9.81-1.9,11.4-10.58h4.1v26.46h-4.1c-1.71-9.16-2.72-10.47-11.52-10.47h-13.63v24.57c0,8.84,2.33,9.94,8.94,10.06h11.26c7.61,0,8.99-1.09,11.78-4.41,2.53-2.84,5.17-7.94,6.99-11.83l3.96,1.04Z"/>
      <path class="cls-1" d="M1516.96,990.18v-3.75c10.25-1.01,10.67-1.79,10.57-14.95l.07-51.23c-10.15,22.91-25.65,56.92-30.92,69.93h-3.45c-5.01-13.16-18.35-45.94-27.88-68.71-2.06,43.48-2.17,53.09-2.17,55.88.13,7.04,3.18,8.19,11.95,9.08v3.75h-30.25v-3.75c7.31-.74,10.4-2.23,11.41-9.2.72-5.25.91-10.29,4.13-55.69.48-6.49-.72-8.87-11.81-9.88v-3.75h22.98l27.33,62.67,29.02-62.67h22.97v3.75c-10.75,1.22-12.1,2.34-11.84,11.43l.59,48.4c.44,13.15.84,13.77,11.82,14.95v3.75h-34.53Z"/>
      <path class="cls-1" d="M1628.88,969.8c-.73,3.31-4.17,16.63-5.42,20.38h-62.27v-3.73c11.73-.93,12.6-1.98,12.6-12.4v-49.7c0-11.17-1.42-11.83-10.75-12.69v-3.75h39.16c12.15,0,16.99-.12,18.56-.25.12,3.01.65,12.66,1.16,19.57l-4.01.63c-1.14-4.3-2.56-7.42-4.09-10-2.07-3.88-4.75-4.75-12.14-4.75h-11.34c-4.09,0-4.38.36-4.38,4.14v27.7h13.75c9.06,0,9.81-1.9,11.4-10.58h4.11v26.46h-4.11c-1.71-9.16-2.73-10.47-11.52-10.47h-13.62v24.57c0,8.84,2.33,9.94,8.93,10.06h11.27c7.6,0,8.98-1.09,11.76-4.41,2.55-2.84,5.19-7.94,7-11.83l3.96,1.04Z"/>
      <path class="cls-1" d="M1725.02,911.65c-8.03.91-10.64,2.24-11.02,8.04-.18,4.21-.45,9.35-.45,20.98v50.69h-5.22l-53.92-65.68v31.1c0,11.32.36,16.88.63,20.55.3,6.3,3.38,8.38,12.53,9.09v3.75h-30.87v-3.75c7.73-.63,10.8-2.53,11.35-8.69.4-4.14.66-9.63.66-21.06v-31.86c0-3.66-.26-5.82-2.56-8.7-2.38-3.16-5.1-3.85-11.15-4.46v-3.75h20.01l52.68,62.3v-29.53c0-11.63-.23-16.85-.61-20.81-.38-5.65-3.13-7.58-13.32-8.21v-3.75h31.26v3.75Z"/>
      <path class="cls-1" d="M1803.08,928.14c-1.19-4.37-2.94-8.66-4.31-10.85-2.07-3.28-3.29-4.19-10.34-4.19h-11.84v61.25c0,10.01,1.06,11.29,12.95,12.07v3.75h-37.77v-3.75c11.59-.78,12.63-1.96,12.63-12.07v-61.25h-10.83c-6.99,0-9.02.83-11.21,4.49-1.56,2.51-2.71,5.82-4.36,10.57h-3.98c.78-7.99,1.57-16.31,1.92-23.21h3.08c1.9,3.01,3.31,2.96,6.9,2.96h50.21c3.52,0,4.67-.55,6.61-2.96h3.15c.02,5.83.53,15.31,1.16,22.81l-3.98.38Z"/>
      <path class="cls-1" d="M1928.7,955.6c-7.73,1.06-8.31,1.77-8.31,9.44v10.47c0,4.45.12,8.65.75,12.07-7.6,1.66-18.51,4.49-29.07,4.49-28.92,0-46.32-17.89-46.32-43.26,0-27.03,22.02-42.68,47.64-42.68,12.43,0,22.22,2.53,26.19,3.12.25,4.84.95,12.91,1.94,20.7l-4,.78c-3.04-10.76-6.89-15.47-14.85-18.13-2.91-1.01-8.01-1.62-11.59-1.62-18.64,0-30.98,13.29-30.98,36.2,0,20.52,9.92,40.08,33.79,40.08,3.98,0,7.79-.79,10.28-2.08,2.52-1.45,4.06-2.98,4.06-7.94v-10.51c0-9.17-1.15-10.16-13.03-11.12v-3.85h33.49v3.85Z"/>
      <path class="cls-1" d="M2014.26,991.14c-1.49,0-2.9-.1-4.53-.23-10.47-.66-15.36-3.24-20.61-10.63-4.75-6.54-9.15-14.47-13.24-21.13-2.42-3.94-4.09-4.69-10.11-4.69l-4.09-.03v19.62c0,10.67,1.37,11.35,11.38,12.38v3.75h-34.69v-3.75c10.35-1.12,11.28-1.71,11.28-12.38v-50.14c0-10.62-1.37-11.18-11.28-12.25v-3.75h33.08c9.6,0,15.85,1.16,20.73,4.39,5.16,3.31,8.58,8.99,8.58,16.73,0,10.95-7.05,17.63-16.24,21.54,2.21,3.9,7.57,12.34,11.36,18.05,4.64,6.76,7.11,9.96,9.93,13.06,3.33,3.6,5.96,4.93,9.01,5.78l-.57,3.68ZM1967.29,949.96c6.37,0,10.55-.99,13.65-3.6,4.8-3.65,6.78-8.66,6.78-15.43,0-13.52-8.76-18.43-18.02-18.43-3.63,0-5.69.51-6.55,1.26-1.1.86-1.45,2.18-1.45,5.33v30.88h5.6Z"/>
      <path class="cls-1" d="M2061.7,906.13c21.97,0,41.28,16.67,41.28,41.82,0,27.17-18.61,44.12-42.02,44.12s-42.32-18.48-42.32-42.39c0-22.47,15.97-43.55,43.06-43.55ZM2059.28,910.98c-13.95,0-26.24,12.03-26.24,35.47s12.11,40.68,29.93,40.68c14.72,0,25.85-11.44,25.85-35.64,0-26.3-13.3-40.51-29.54-40.51Z"/>
      <path class="cls-1" d="M2201.55,911.65c-8,.55-10.77,2.64-11.07,8.24-.17,3.07-.42,8.2-.42,19.35v14.19c0,12.55-1.56,22.62-8.88,30.32-5.93,6.18-14.6,8.21-23.38,8.21-7.52,0-15.46-1.56-21.09-5.96-7.55-5.78-11.2-14.33-11.2-29.02v-32.23c0-11.44-1.04-12.22-11.07-13.11v-3.75h34.34v3.75c-10.01.68-11.04,1.67-11.04,13.11v32.01c0,17.7,8.42,27.69,23.31,27.69,17.45,0,23.31-11.14,23.31-31.78v-13.44c0-11.12-.38-15.88-.63-19.37-.4-5.72-3.43-7.71-12.71-8.22v-3.75h30.56v3.75Z"/>
      <path class="cls-1" d="M2241.72,907.9c9.16,0,16.45,1.67,21.64,5.4,5.19,3.76,8.63,9.73,8.63,18.16,0,18.46-15.78,25.97-28.07,25.99-1.37,0-2.7-.13-3.49-.26l-8.48-2.21v19.29c0,10.63.89,10.93,12.41,12.15v3.75h-35.89v-3.75c10.63-1.14,11.28-1.83,11.28-12.36v-49.91c0-11.15-1.37-11.56-11.28-12.51v-3.75h33.25ZM2231.94,950.4c1.52.76,4.78,1.57,8.78,1.57,8.01,0,18.33-4.14,18.33-20.23,0-13.97-8.86-19.38-19.06-19.38-3.49,0-5.94.63-6.7,1.47-.99.86-1.35,2.34-1.35,5.48v31.08Z"/>
    </g>
    <g>
      <path class="cls-5" d="M418.58,1097.57c15,0,26.39,2.66,34.17,7.78,9.49,6.27,14.81,15.38,14.81,28.48,0,27.53-23.35,39.11-43.67,39.3-1.9,0-4.37-.19-5.69-.38l-11.01-2.85v25.82c0,15.95,1.33,16.71,17.85,18.23v7.02h-60.37v-7.02c14.24-1.71,16.14-2.28,16.14-18.23v-72.52c0-15.94-1.9-17.66-16.14-18.6v-7.02h53.92ZM407.19,1161.93c2.28,1.14,6.08,1.9,10.06,1.9,8.73,0,22.98-5.13,22.98-30.19,0-21.27-11.58-28.29-23.92-28.29-3.98,0-6.27.95-7.4,1.9-1.33,1.14-1.71,3.04-1.71,5.89v48.79Z"/>
      <path class="cls-5" d="M635.81,1189.43c-1.01,5.06-6.27,26.1-8.04,31.55h-96.34v-6.31c17.41-1.57,18.61-2.79,18.61-18.6v-73.39c0-16.4-2.21-17.48-15.59-18.68v-6.42h60.44c19.2,0,26.11-.19,28.64-.38.19,3.88,1.07,18.98,1.83,30.16l-6.81.95c-1.71-6.45-4.47-12.91-7.3-16.53-3.28-4.66-6.42-5.86-16.7-5.86h-14.33c-6.75,0-7.38.44-7.38,6.57v40.48h19.47c11.89,0,13.46-2.85,16.11-16.13h6.87v41.21h-6.87c-2.84-13.92-4.35-16.06-16.3-16.06h-19.28v34.45c0,13.17,1.71,16.16,12.68,16.35h14.94c10.96,0,13.48-1.46,17.66-6.53,4.35-4.97,8.21-12.26,11.11-18.45l6.56,1.64Z"/>
      <path class="cls-5" d="M767.17,1094.91c34.19,0,62.99,25.36,62.99,62.9,0,40.57-28.46,66.01-64.01,66.01-37.44,0-64.64-27.72-64.64-64.03,0-33,23.5-64.88,65.65-64.88ZM763.99,1102.8c-20.03,0-36.06,18.59-36.06,52.86s15.05,60.22,41.14,60.22c19.76,0,34.94-17.34,34.94-52.75,0-38.39-17-60.33-40.02-60.33Z"/>
      <path class="cls-5" d="M951.78,1097.57c14.47,0,25.66,2.59,33.45,7.91,8.76,6,14.01,15.05,14.01,27.95,0,27.59-23.49,39.05-43,39.17-1.96,0-4.23-.19-5.5-.38l-11.74-3.05v27.15c0,15.94,1.33,16.57,18.18,18.23v6.42h-57.59v-6.42c14.97-1.71,16.47-2.48,16.47-18.36v-73.52c0-16.28-1.97-17.52-16.47-18.67v-6.42h52.19ZM939,1161.67c2.28,1.14,6.54,2.1,11.39,2.1,10.13,0,24.9-5.59,24.9-30.25,0-21.13-12.32-28.62-25.92-28.62-4.52,0-7.39.95-8.53,2.03-1.4,1.2-1.84,3.24-1.84,6.88v47.86Z"/>
      <path class="cls-5" d="M1165.61,1188.22c-1.39,7.37-6.84,27.36-8.61,32.75h-92.11v-6.42c16.91-1.34,18.43-2.54,18.43-18.55v-73.4c0-16.01-1.9-17.33-16.47-18.61v-6.42h56.31v6.42c-14.94,1.4-16.9,2.53-16.9,18.61v74.93c0,10.84.78,14.85,11.35,15.04.31.12,10.77.19,11.67.19,10.42,0,13.27-1.88,17.76-6.88,4.01-4.19,8.61-12.16,11.83-19.67l6.75,2.01Z"/>
      <path class="cls-5" d="M1330.06,1189.43c-1.01,5.06-6.26,26.1-8.04,31.55h-96.34v-6.31c17.41-1.57,18.61-2.79,18.61-18.6v-73.39c0-16.4-2.21-17.48-15.59-18.68v-6.42h60.44c19.2,0,26.11-.19,28.64-.38.19,3.88,1.07,18.98,1.83,30.16l-6.81.95c-1.71-6.45-4.47-12.91-7.3-16.53-3.28-4.66-6.42-5.86-16.7-5.86h-14.33c-6.75,0-7.38.44-7.38,6.57v40.48h19.47c11.89,0,13.46-2.85,16.11-16.13h6.87v41.21h-6.87c-2.84-13.92-4.35-16.06-16.3-16.06h-19.28v34.45c0,13.17,1.71,16.16,12.68,16.35h14.94c10.96,0,13.48-1.46,17.66-6.53,4.35-4.97,8.21-12.26,11.11-18.45l6.56,1.64Z"/>
      <path class="cls-5" d="M1576.62,1129.09c-2.09-7.21-5.12-14.24-8.36-17.85-3.98-4.17-6.45-4.94-15.56-4.94h-14.24c-6.45,0-7.21.38-7.21,6.84v41.39h20.32c11.2,0,12.71-2.85,15.56-16.14h7.02v42.15h-7.21c-2.09-12.91-4.94-16.14-15.37-16.14h-20.32v29.62c0,17.47,1.14,18.79,18.22,19.94v7.02h-60.75v-7.02c14.43-1.33,16.13-2.47,16.13-19.94v-69.87c0-16.9-1.7-18.42-16.13-19.56v-7.02h64.36c16.33,0,25.82-.19,28.86-.38.19,3.23,1.14,19.56,2.09,30.76l-7.4,1.14Z"/>
      <path class="cls-5" d="M1649.47,1220.98v-6.42c14.83-1.46,16.47-2.47,16.47-18.49v-73.4c0-16.08-1.77-17.33-16.47-18.67v-6.42h55.94v6.42c-14.77,1.46-16.54,2.59-16.54,18.67v73.4c0,15.96,1.65,16.9,16.54,18.49v6.42h-55.94Z"/>
      <path class="cls-5" d="M1891.79,1222.25c-1.6,0-3.82-.07-6.16-.26-20.52-1.08-27.68-5.67-34.31-14.97-7.39-10.18-13.37-21.89-19.69-32.68-3.18-5.46-5.77-6.6-13.11-6.6l-4.79-.12v28.45c0,15.64,1.96,16.84,16.53,18.49v6.42h-55.5v-6.42c14.9-1.59,16.47-2.84,16.47-18.49v-73.78c0-15.4-1.96-16.96-16.47-18.3v-6.42h52.73c15.83,0,25.39,1.83,32.97,6.95,7.66,5.06,12.79,13.48,12.79,25.18,0,16.7-10.94,26.09-23.99,31.42,3.05,5.76,10.72,18.24,16.41,26.9,6.77,10.31,10.75,15.31,14.63,19.68,4.63,5.13,7.51,6.86,12.63,8.49l-1.14,6.06ZM1820.25,1160.3c8.76,0,15.03-1.4,19.4-5.14,6.67-5.38,9.46-12.73,9.46-22.61,0-20.19-12.25-27.47-24.27-27.47-5.26,0-7.99.76-9.2,1.9-1.46,1.21-1.9,3.35-1.9,7.55v45.78h6.52Z"/>
      <path class="cls-5" d="M2023.75,1128.03c-3.6-12.28-8.91-25.61-26.51-25.61-12.34,0-18.82,8.85-18.82,19.22,0,11.37,7.49,17.77,23.86,26.06,21.18,10.66,33.02,20.13,33.02,38.66,0,21.54-18.13,37.47-44.36,37.47-11.89,0-22.38-3.23-30.9-6.02-1.27-4.69-4.17-22.05-5.49-31.44l6.87-1.64c3.79,12.23,13.63,31.46,32.64,31.46,12.31,0,19.8-8.01,19.8-20.22s-7.17-18.53-23.39-27.28c-19.81-10.7-32.12-20.06-32.12-39.07s15.04-34.69,42.32-34.69c12.24,0,22.31,2.85,26.42,3.48.76,6.96,1.89,16.03,3.41,28.13l-6.75,1.51Z"/>
      <path class="cls-5" d="M2205.45,1129.35c-1.96-7.8-5.47-14.69-7.43-17.61-3.28-4.39-4.94-5.84-15.87-5.84h-14.55v90.36c0,15.55,1.77,17.02,19.06,18.29v6.42h-60.31v-6.42c16.67-1.27,18.31-2.67,18.31-18.29v-90.36h-13.57c-10.57,0-13.61,1.51-17.08,6.46-2.53,3.67-4.78,9.71-7.25,17.11h-6.69c1.27-13.06,2.53-26.88,2.97-36.52h5.23c2.85,4.43,5.06,4.61,10.62,4.61h75.68c5.19,0,7.45-1.01,10.55-4.61h5.17c.12,8.31.89,23.95,1.83,35.83l-6.68.57Z"/>
      <path class="cls-3" d="M2261.09,1223.99c-10.24,0-17.56-7.57-17.56-18.28s7.32-18.12,17.56-18.12,17.89,7.73,17.89,18.12-7.49,18.28-17.89,18.28Z"/>
    </g>
    <line class="cls-2" x1="2302.5" y1="1046.25" x2="330" y2="1046.25"/>
    <rect class="cls-7" width="2625" height="1545"/>
  </g>
</svg>